<?xml version="1.0" standalone="no"?>
<!DOCTYPE svg PUBLIC "-//W3C//DTD SVG 20010904//EN"
 "http://www.w3.org/TR/2001/REC-SVG-20010904/DTD/svg10.dtd">
<svg version="1.0" xmlns="http://www.w3.org/2000/svg"
 width="1500.000000pt" height="1500.000000pt" viewBox="0 0 1500.000000 1500.000000"
 preserveAspectRatio="xMidYMid meet">

<g transform="translate(0.000000,1500.000000) scale(0.100000,-0.100000)"
fill="#000000" stroke="none">
<path d="M7279 9700 c-86 -11 -135 -36 -198 -106 -115 -126 -141 -187 -141
-333 0 -89 18 -183 38 -195 4 -2 7 53 7 122 0 149 10 177 103 288 80 96 127
122 236 134 101 12 172 3 237 -30 54 -28 178 -158 179 -187 0 -12 10 -48 22
-80 28 -74 27 -190 -2 -279 -17 -51 -33 -73 -88 -126 -37 -36 -86 -75 -110
-87 -40 -21 -52 -22 -165 -15 -70 3 -144 14 -174 23 -58 19 -57 18 1 -53 76
-90 186 -125 402 -126 73 0 118 26 211 121 82 85 95 126 97 289 0 108 -2 132
-22 178 -12 29 -22 65 -22 79 0 38 -284 324 -357 358 -59 29 -154 38 -254 25z"/>
<path d="M9509 9576 c-2 -2 -76 -6 -164 -9 -152 -5 -166 -7 -288 -46 -71 -23
-135 -41 -142 -41 -26 0 -253 -119 -310 -164 -70 -54 -138 -131 -277 -316 -98
-131 -137 -197 -138 -233 0 -10 -9 -43 -20 -75 -58 -162 -73 -511 -29 -697 38
-163 61 -229 96 -279 19 -27 42 -72 50 -100 22 -74 53 -113 246 -307 198 -199
275 -257 489 -364 111 -55 150 -69 219 -80 46 -7 98 -18 114 -25 52 -21 144
-30 315 -30 174 -1 227 8 315 53 22 11 69 26 105 34 35 7 80 23 100 35 19 11
64 33 100 47 86 36 201 123 217 164 26 70 5 165 -53 237 -20 25 -56 88 -81
140 -26 52 -64 115 -86 140 -21 25 -45 57 -53 72 -8 15 -33 39 -57 52 -40 24
-70 56 -109 117 -9 14 -36 36 -60 48 -63 30 -130 28 -209 -8 -35 -15 -94 -38
-130 -50 -61 -20 -76 -21 -162 -12 -114 11 -175 28 -188 52 -6 12 -4 60 6 141
8 67 15 138 15 158 0 31 9 43 78 106 71 65 84 73 147 87 39 9 108 19 155 22
84 7 86 6 205 -40 145 -57 190 -68 233 -60 45 8 99 66 134 144 16 36 42 80 57
96 43 45 111 160 127 212 16 53 19 222 4 272 -12 42 -62 96 -112 122 -23 12
-43 32 -51 52 -19 44 -87 103 -136 118 -22 6 -61 30 -88 52 -70 58 -194 114
-273 122 -36 4 -94 16 -129 26 -55 17 -170 26 -182 15z"/>
<path d="M4875 9553 c-16 -1 -86 -8 -155 -14 -230 -20 -249 -42 -251 -295 0
-92 4 -179 11 -206 9 -35 9 -60 1 -98 -6 -28 -9 -88 -6 -133 3 -45 7 -244 9
-442 2 -285 0 -372 -11 -418 -12 -48 -12 -80 -3 -185 6 -70 13 -230 15 -356 4
-207 7 -233 26 -272 21 -44 62 -76 112 -88 15 -3 27 -12 27 -18 0 -34 43 -96
83 -118 42 -24 44 -24 362 -26 176 0 331 3 345 8 39 14 70 48 96 103 21 44 24
65 24 170 0 66 3 184 7 263 l6 143 56 45 56 45 110 -7 c140 -10 186 -8 244 10
25 8 78 17 116 19 153 12 336 106 461 239 55 58 77 97 136 241 46 113 50 131
59 247 5 69 10 175 10 237 0 96 -3 121 -24 173 -39 95 -126 227 -195 294 -35
33 -75 75 -90 91 -116 129 -264 228 -426 284 -164 57 -320 70 -806 69 -206 -1
-388 -3 -405 -5z m805 -877 c43 -12 45 -15 48 -53 3 -36 -1 -43 -35 -70 -22
-18 -54 -32 -76 -35 -34 -4 -40 -1 -48 19 -7 18 -1 38 23 88 18 36 35 65 38
65 3 0 25 -6 50 -14z"/>
<path d="M7027 8626 c-98 -36 -122 -94 -132 -326 -12 -242 -11 -286 3 -440 10
-107 11 -156 1 -238 -16 -140 -7 -320 20 -392 26 -70 71 -124 121 -146 22 -10
42 -25 45 -35 13 -40 69 -102 108 -120 48 -21 147 -25 226 -8 40 8 55 7 80 -5
23 -12 63 -16 172 -16 134 0 145 1 185 25 34 20 50 39 73 88 47 100 53 160 46
462 -7 318 -7 508 -1 700 5 161 -2 200 -43 239 -26 25 -99 52 -110 40 -6 -6
-3 -757 4 -929 9 -228 -30 -380 -111 -435 -34 -23 -48 -25 -167 -28 -104 -3
-139 0 -174 13 -38 15 -53 15 -109 5 -77 -15 -166 -6 -210 21 -100 61 -136
211 -114 478 10 114 9 170 -1 279 -8 75 -13 160 -11 187 14 345 19 401 36 435
51 98 95 112 324 101 92 -4 185 -8 207 -8 81 -1 241 -20 263 -32 13 -7 32 -27
42 -44 16 -26 20 -28 20 -12 0 28 -34 81 -67 102 -30 20 -141 33 -308 38 -55
1 -163 5 -240 8 -107 5 -149 3 -178 -7z"/>
<path d="M6210 6751 c-81 -17 -103 -47 -121 -162 -6 -41 -20 -84 -31 -100 -26
-35 -48 -146 -59 -304 -9 -138 -21 -239 -37 -320 -5 -27 -10 -129 -11 -225 -1
-96 -6 -191 -11 -210 -6 -19 -10 -51 -10 -70 -1 -46 -9 -31 -53 95 -37 107
-85 204 -135 276 -38 55 -250 263 -317 311 -79 56 -270 147 -351 168 -41 10
-81 23 -88 29 -7 6 -103 13 -232 17 l-219 7 -130 -37 c-130 -38 -228 -88 -280
-146 -11 -12 -37 -29 -58 -38 -75 -29 -247 -265 -268 -365 -5 -23 -18 -71 -28
-107 -22 -73 -42 -300 -35 -400 l5 -65 -26 40 c-14 22 -30 59 -36 82 -6 23
-31 68 -55 99 -24 31 -57 79 -74 108 -41 72 -140 166 -177 167 -55 2 -73 -3
-148 -42 -72 -37 -81 -39 -164 -39 -120 0 -144 6 -196 52 -45 39 -45 40 -45
105 0 64 0 65 55 127 61 69 94 84 230 106 66 10 78 9 160 -15 152 -44 171 -47
209 -31 38 16 77 69 96 131 7 22 23 54 35 70 32 42 81 143 90 183 18 85 -22
168 -98 202 -23 11 -45 30 -56 51 -12 23 -34 42 -67 58 -27 13 -60 30 -74 37
-133 72 -176 84 -375 100 -106 8 -352 -27 -440 -64 -38 -16 -88 -35 -110 -42
-53 -18 -179 -94 -243 -148 -56 -47 -85 -85 -203 -272 -81 -128 -101 -193
-119 -380 -19 -198 51 -514 136 -610 17 -19 36 -50 42 -69 18 -51 50 -88 147
-171 49 -41 113 -97 144 -123 118 -102 311 -192 461 -214 152 -23 229 -26 355
-14 104 9 127 15 199 49 44 22 105 47 133 56 29 10 55 22 59 27 3 5 32 23 64
39 33 17 83 51 112 77 l52 46 42 -89 c39 -84 50 -97 202 -246 96 -94 178 -166
205 -180 26 -13 71 -40 101 -62 52 -37 117 -60 252 -90 33 -7 71 -19 83 -26
15 -8 63 -11 139 -9 65 1 142 1 172 0 35 -1 86 8 139 24 47 14 97 25 112 25
15 0 53 14 85 32 33 17 86 45 119 62 33 17 98 60 144 96 73 56 95 81 163 184
53 81 85 142 100 189 l21 70 14 -33 c18 -43 40 -59 83 -60 19 -1 53 -7 75 -15
22 -8 56 -15 75 -15 19 0 53 -5 75 -11 22 -6 76 -13 120 -14 44 -2 134 -9 200
-15 66 -7 141 -12 166 -11 26 0 71 -4 100 -10 30 -6 118 -12 197 -15 78 -2
175 -11 215 -19 110 -23 159 -20 197 11 48 41 64 80 65 164 2 89 23 262 34
273 8 8 28 -35 54 -113 8 -25 32 -85 53 -135 35 -82 48 -100 139 -191 56 -56
116 -109 135 -119 19 -9 64 -37 100 -61 60 -41 135 -68 260 -93 19 -4 45 -13
57 -20 51 -27 473 -31 546 -5 23 9 76 22 116 30 41 8 95 26 120 41 26 15 71
39 101 54 30 14 96 58 145 96 81 63 99 83 168 190 120 188 177 387 166 585 -6
123 -43 239 -137 428 -51 103 -68 126 -162 224 -58 60 -135 132 -171 161 -82
66 -246 151 -319 165 -30 6 -68 19 -85 28 -24 14 -65 18 -205 22 -221 6 -310
-1 -437 -38 -108 -31 -187 -72 -262 -137 -25 -22 -63 -48 -83 -57 -76 -35
-244 -268 -269 -374 -6 -27 -22 -80 -35 -119 -21 -61 -24 -92 -26 -240 -2 -93
1 -180 5 -193 8 -21 6 -20 -21 5 -16 16 -33 37 -36 49 -4 11 -18 31 -31 44
-28 27 -73 34 -285 49 -69 5 -169 15 -223 22 -82 11 -98 16 -104 34 -15 47 2
282 34 450 16 85 29 249 39 480 7 156 -4 213 -43 230 -12 5 -25 22 -28 36 -13
59 -54 76 -221 89 -76 7 -159 18 -184 26 -59 18 -127 24 -170 15z m2583 -499
c8 -7 49 -21 92 -32 85 -22 200 -80 286 -147 136 -103 217 -229 295 -453 39
-114 43 -136 45 -230 2 -116 -9 -182 -52 -313 -34 -102 -50 -133 -126 -247
-43 -62 -78 -100 -133 -143 -98 -75 -269 -166 -337 -178 -30 -6 -73 -17 -96
-26 -60 -22 -374 -29 -431 -9 -23 7 -79 24 -126 36 -99 25 -160 51 -210 89
-19 14 -51 34 -70 43 -19 9 -77 55 -128 103 -86 81 -96 94 -148 203 -32 67
-66 158 -80 212 -22 90 -23 102 -13 230 5 74 19 164 29 200 11 36 25 87 31
113 23 97 198 337 256 352 15 3 45 22 66 42 74 66 153 109 239 131 46 12 95
26 109 32 35 15 482 8 502 -8z m-3743 -102 c19 -9 55 -20 80 -24 60 -9 226
-95 307 -158 123 -97 201 -218 279 -433 74 -203 72 -342 -6 -579 -28 -83 -119
-242 -174 -305 -34 -38 -168 -137 -222 -164 -27 -13 -75 -38 -108 -56 -32 -17
-70 -31 -85 -31 -14 0 -55 -9 -91 -21 -87 -28 -380 -37 -450 -14 -25 8 -81 24
-125 36 -132 35 -138 38 -190 77 -27 21 -66 44 -84 52 -38 16 -230 195 -248
232 -56 113 -98 215 -115 278 -17 67 -19 93 -13 240 6 141 10 173 31 224 13
33 24 71 24 84 0 72 180 328 257 367 23 11 53 30 65 42 73 65 157 110 269 141
140 39 150 40 379 34 148 -4 192 -8 220 -22z"/>
<path d="M8485 5663 c-73 -8 -104 -25 -149 -83 -64 -83 -76 -111 -76 -177 1
-165 30 -231 135 -302 56 -38 65 -41 127 -41 124 0 189 43 249 166 22 45 32
81 36 135 5 71 4 78 -30 145 -29 57 -45 77 -79 97 -24 14 -52 34 -62 46 -19
21 -62 25 -151 14z m127 -131 c18 -16 48 -37 66 -48 24 -13 44 -40 68 -87 38
-75 38 -94 -4 -162 -63 -103 -121 -135 -243 -135 -72 0 -81 2 -109 28 -29 26
-31 33 -42 142 -11 111 -10 117 12 160 12 24 36 61 53 82 25 31 37 38 76 41
25 2 56 4 68 5 12 1 37 -11 55 -26z"/>
<path d="M4720 5563 c-67 -11 -91 -26 -138 -86 -83 -105 -85 -111 -72 -240 13
-135 36 -177 125 -238 56 -38 61 -39 140 -39 135 0 183 32 250 166 30 61 35
80 35 142 0 63 -5 82 -34 141 -28 54 -44 74 -78 94 -24 14 -52 34 -62 46 -16
17 -30 21 -80 20 -34 -1 -72 -4 -86 -6z m271 -125 c19 -35 3 -171 -28 -234
-60 -122 -123 -164 -248 -164 -46 0 -76 5 -83 13 -5 6 -12 50 -16 97 -6 81 -5
87 21 131 91 153 124 173 290 178 44 1 54 -2 64 -21z"/>
<path d="M12850 6634 c0 -4 13 -21 29 -40 37 -42 118 -203 113 -226 -5 -24
-19 -27 -123 -19 -67 6 -107 14 -137 30 l-44 22 19 -32 c10 -17 42 -48 71 -67
49 -33 60 -36 160 -43 110 -8 132 -3 132 30 0 26 -86 188 -120 227 -16 19 -30
43 -30 53 0 10 -12 30 -26 45 -25 25 -44 33 -44 20z"/>
<path d="M12556 6490 c-16 -5 -41 -20 -55 -34 -44 -42 -95 -57 -182 -55 -68 2
-82 -1 -94 -17 -8 -10 -15 -22 -15 -26 0 -19 52 -38 132 -48 108 -14 178 2
237 55 27 24 48 35 70 35 34 0 39 11 15 31 -8 7 -22 25 -30 41 -15 29 -29 32
-78 18z"/>
<path d="M10565 6390 c-71 -5 -161 -13 -200 -20 -38 -6 -108 -13 -155 -15
-165 -8 -469 -63 -510 -94 -43 -31 -52 -58 -45 -146 3 -44 8 -103 10 -132 2
-29 9 -62 16 -75 6 -12 13 -56 14 -98 2 -73 6 -105 40 -370 9 -69 20 -168 24
-220 4 -52 10 -100 13 -105 3 -6 3 -30 -2 -53 -5 -31 -2 -76 12 -150 11 -59
24 -141 28 -182 15 -145 31 -245 45 -285 7 -22 18 -69 24 -105 12 -69 33 -107
72 -128 32 -17 243 -8 396 18 62 11 119 17 126 14 33 -12 106 85 107 142 0 12
14 36 30 54 17 18 33 43 36 57 7 25 7 24 53 -19 59 -57 147 -115 186 -123 17
-4 70 -21 118 -37 82 -29 94 -31 190 -25 88 5 118 12 218 50 221 84 234 96
233 215 -3 199 0 184 -53 294 -60 126 -119 215 -161 241 -17 11 -33 18 -35 15
-3 -2 24 -60 58 -129 54 -108 62 -131 62 -179 -1 -85 -25 -118 -115 -156 -238
-99 -337 -110 -505 -55 -99 32 -111 37 -174 76 -52 32 -154 142 -183 198 -31
60 -32 56 -17 -106 8 -89 8 -130 0 -158 -11 -38 -65 -94 -81 -84 -5 3 -48 -2
-97 -10 -48 -9 -148 -20 -221 -26 -214 -16 -221 -7 -252 296 -5 50 -17 119
-25 155 -13 54 -23 171 -26 315 -1 29 -9 94 -45 380 -10 72 -16 150 -15 175 1
25 -5 64 -13 86 -8 23 -17 96 -21 162 l-8 122 32 29 c27 25 49 32 168 54 176
33 194 36 333 47 63 5 149 14 190 20 41 5 136 10 210 10 161 0 266 -21 374
-77 89 -46 207 -163 254 -251 32 -59 34 -70 44 -223 7 -112 7 -168 -1 -187 -5
-15 -17 -56 -26 -91 -9 -36 -27 -85 -40 -110 -26 -53 -111 -136 -173 -172 -23
-13 -42 -28 -42 -32 0 -4 16 -15 35 -23 26 -11 67 -14 152 -12 l117 3 17 30
c10 17 34 86 54 155 l37 125 -5 170 c-3 127 -9 181 -22 215 -9 25 -28 76 -41
114 -25 74 -103 185 -177 253 -58 53 -210 130 -304 152 -102 25 -180 29 -338
21z"/>
<path d="M11898 6275 c-15 -9 -33 -25 -39 -37 -14 -27 -31 -132 -35 -223 -1
-38 -7 -122 -13 -185 -5 -63 -16 -210 -24 -326 -8 -116 -17 -216 -21 -222 -4
-7 -11 -62 -16 -124 -5 -62 -14 -162 -20 -223 -5 -60 -12 -172 -13 -248 -4
-151 5 -189 57 -236 23 -22 43 -26 169 -39 78 -8 171 -16 207 -19 36 -2 121
-8 190 -14 69 -6 157 -11 195 -13 39 -1 95 -7 125 -13 30 -7 143 -17 252 -24
188 -11 197 -11 229 8 79 45 95 109 89 357 -1 85 -15 125 -52 150 -22 16 -23
15 -35 -36 -7 -29 -16 -100 -19 -157 -7 -94 -10 -107 -34 -134 -23 -26 -36
-31 -89 -35 -34 -2 -88 1 -119 7 -31 6 -145 16 -252 21 -108 6 -250 18 -315
26 -66 9 -160 18 -210 19 -167 5 -272 32 -295 74 -15 29 -12 235 6 396 9 77
19 208 24 290 4 83 13 172 19 200 7 27 19 148 27 270 21 318 28 379 48 409 22
35 61 49 111 41 56 -10 231 -24 420 -35 88 -4 203 -13 255 -19 52 -6 162 -16
245 -22 82 -6 157 -15 167 -20 45 -24 51 -50 46 -213 -4 -177 -11 -195 -85
-228 -35 -16 -57 -19 -92 -13 -70 10 -168 16 -251 16 -41 -1 -100 3 -130 8
-50 9 -58 7 -92 -15 -21 -13 -38 -27 -38 -30 0 -3 14 -23 31 -44 33 -41 42
-42 89 -10 20 13 35 15 75 8 28 -4 84 -8 125 -8 92 0 186 -6 242 -16 53 -10
72 -7 126 16 36 16 47 28 67 75 23 51 25 68 27 240 l2 184 -29 32 c-39 40 -76
59 -118 59 -19 0 -72 6 -118 14 -46 8 -149 17 -229 20 -188 8 -417 24 -505 36
-38 5 -133 12 -210 15 -113 4 -145 2 -167 -10z"/>
<path d="M10424 5801 c-6 -30 -7 -58 -1 -73 5 -12 6 -39 4 -60 -4 -31 0 -41
28 -68 28 -27 37 -31 67 -25 l35 7 -10 43 c-15 64 -6 77 45 69 24 -4 49 -11
56 -17 20 -16 24 -2 17 56 -6 50 -11 58 -50 86 -38 27 -51 31 -112 31 l-69 0
-10 -49z"/>
<path d="M13077 5510 c20 -32 23 -45 17 -72 -4 -18 -8 -82 -9 -143 0 -124 -14
-164 -62 -184 -39 -16 -300 -18 -336 -3 -16 7 -61 12 -101 12 -65 0 -77 -3
-109 -29 l-36 -28 32 -32 c33 -31 74 -40 93 -21 8 8 75 6 220 -5 115 -9 224
-16 243 -16 85 3 126 55 135 169 4 42 11 111 17 153 9 62 8 81 -4 110 -19 44
-81 115 -106 122 -18 4 -18 2 6 -33z"/>
</g>
</svg>
